<svg width="140" height="38" viewBox="0 0 140 38" fill="none" xmlns="http://www.w3.org/2000/svg">
<path d="M30.7072 18.7289C30.6767 15.3439 33.4846 13.697 33.613 13.6203C32.0228 11.3066 29.558 10.9904 28.6919 10.9652C26.6218 10.7478 24.6137 12.2014 23.5592 12.2014C22.4836 12.2014 20.8598 10.9862 19.1096 11.0219C16.8574 11.0566 14.7505 12.3579 13.5949 14.3786C11.2101 18.4989 12.9887 24.5538 15.2735 27.8843C16.4164 29.5165 17.752 31.3366 19.5 31.2725C21.2102 31.2032 21.849 30.1855 23.9128 30.1855C25.9577 30.1855 26.5576 31.2725 28.3404 31.2316C30.1758 31.2032 31.3313 29.5931 32.4343 27.9473C33.7551 26.0789 34.2855 24.2367 34.3065 24.1421C34.2644 24.1274 30.743 22.7852 30.7072 18.7289ZM27.3395 8.77431C28.2593 7.62634 28.8887 6.06456 28.714 4.47968C27.3827 4.53849 25.7177 5.39868 24.759 6.52144C23.9107 7.51081 23.153 9.13246 23.3487 10.6575C24.8442 10.7688 26.3797 9.90442 27.3395 8.77431Z" fill="black"/>
<path d="M55.4782 30.942H53.0882L51.779 26.8364H47.2283L45.9812 30.942H43.6543L48.1639 16.9648H50.9486L55.4782 30.942ZM51.3843 25.114L50.2003 21.4642C50.0751 21.0914 49.8394 20.2133 49.4942 18.8311H49.4521C49.3132 19.4256 49.0911 20.3036 48.7869 21.4642L47.623 25.114H51.3843ZM67.0527 25.7788C67.0527 27.4929 66.5865 28.8477 65.653 29.8424C64.8174 30.7278 63.7787 31.1699 62.54 31.1699C61.2023 31.1699 60.2404 30.6941 59.6563 29.7405V35.0287H57.4126V24.1761C57.4126 23.0995 57.3842 21.9957 57.3294 20.8634H59.3027L59.428 22.4609H59.4701C60.2183 21.2573 61.3539 20.6555 62.8778 20.6555C64.0691 20.6555 65.0637 21.125 65.8593 22.065C66.6539 23.0071 67.0527 24.2443 67.0527 25.7788ZM64.7669 25.8607C64.7669 24.8797 64.5459 24.071 64.1018 23.4335C63.6166 22.7708 62.9651 22.4389 62.1485 22.4389C61.5949 22.4389 61.0918 22.6237 60.6425 22.9882C60.192 23.3558 59.8973 23.8358 59.7595 24.4302C59.6979 24.6525 59.663 24.8813 59.6553 25.1119V26.7934C59.6553 27.5254 59.8805 28.144 60.3309 28.6503C60.7814 29.1544 61.3665 29.4075 62.0864 29.4075C62.9315 29.4075 63.5892 29.0809 64.0597 28.4329C64.5311 27.7827 64.7669 26.9257 64.7669 25.8607ZM78.6683 25.7788C78.6683 27.4929 78.2021 28.8477 77.2686 29.8424C76.4319 30.7278 75.3942 31.1699 74.1545 31.1699C72.8168 31.1699 71.8549 30.6941 71.2708 29.7405V35.0287H69.0271V24.1761C69.0271 23.0995 68.9987 21.9957 68.9439 20.8634H70.9172L71.0425 22.4609H71.0846C71.8318 21.2573 72.9673 20.6555 74.4923 20.6555C75.6826 20.6555 76.6771 21.125 77.4749 22.065C78.2684 23.0071 78.6683 24.2443 78.6683 25.7788ZM76.3814 25.8607C76.3814 24.8797 76.1593 24.071 75.7152 23.4335C75.23 22.7708 74.5807 22.4389 73.764 22.4389C73.2105 22.4389 72.7074 22.6237 72.2559 22.9882C71.8055 23.3558 71.5118 23.8358 71.374 24.4302C71.3056 24.7075 71.2687 24.9333 71.2687 25.1119V26.7934C71.2687 27.5254 71.495 28.144 71.9433 28.6503C72.3938 29.1534 72.9789 29.4075 73.7009 29.4075C74.547 29.4075 75.2048 29.0809 75.6742 28.4329C76.1457 27.7827 76.3814 26.9257 76.3814 25.8607ZM91.6552 27.0213C91.6552 28.2113 91.2384 29.1786 90.4101 29.9253C89.4988 30.7404 88.2264 31.1489 86.5951 31.1489C85.0881 31.1489 83.8799 30.859 82.9685 30.2782L83.4873 28.4119C84.4713 28.9937 85.5522 29.2836 86.7288 29.2836C87.5749 29.2836 88.2327 29.0925 88.7021 28.7133C89.1725 28.3331 89.4103 27.8248 89.4103 27.1904C89.4103 26.6222 89.2135 26.1464 88.8273 25.7588C88.439 25.3723 87.797 25.0121 86.8951 24.6812C84.4429 23.7685 83.2158 22.4336 83.2158 20.6775C83.2158 19.5306 83.6494 18.5917 84.5145 17.8575C85.3796 17.1244 86.5267 16.7579 87.9538 16.7579C89.2283 16.7579 90.2902 16.9795 91.1332 17.4216L90.5701 19.247C89.7766 18.8185 88.881 18.6043 87.8791 18.6043C87.0877 18.6043 86.4667 18.7986 86.0226 19.1851C85.649 19.5306 85.4596 19.9518 85.4596 20.4517C85.4596 21.0031 85.6753 21.4611 86.1047 21.8203C86.4772 22.1511 87.1571 22.5113 88.1401 22.8979C89.3461 23.3831 90.2323 23.9481 90.7995 24.5972C91.371 25.2463 91.6552 26.0561 91.6552 27.0213ZM99.0926 22.5439H96.6194V27.4372C96.6194 28.6818 97.0551 29.3025 97.9286 29.3025C98.3296 29.3025 98.6622 29.2689 98.9253 29.1985L98.9874 30.899C98.5454 31.0638 97.9634 31.1468 97.2425 31.1468C96.3563 31.1468 95.6638 30.8769 95.1639 30.337C94.6661 29.7972 94.4157 28.8929 94.4157 27.6199V22.5397H92.9423V20.8592H94.4157V19.0139L96.6194 18.3501V20.8592H99.0926V22.5439ZM110.229 25.8198C110.229 27.3689 109.785 28.6408 108.899 29.6355C107.972 30.6595 106.738 31.1699 105.201 31.1699C103.717 31.1699 102.537 30.6794 101.657 29.6995C100.778 28.7175 100.338 27.4803 100.338 25.9878C100.338 24.426 100.792 23.1468 101.698 22.1521C102.607 21.1565 103.83 20.6586 105.367 20.6586C106.849 20.6586 108.039 21.1502 108.94 22.1311C109.801 23.0827 110.229 24.3115 110.229 25.8198ZM107.903 25.8712C107.903 24.948 107.703 24.1561 107.303 23.4934C106.832 22.693 106.159 22.2929 105.286 22.2929C104.387 22.2929 103.698 22.693 103.229 23.4934C102.827 24.1561 102.627 24.9617 102.627 25.9132C102.627 26.8375 102.827 27.6315 103.229 28.2921C103.714 29.0925 104.39 29.4926 105.267 29.4926C106.125 29.4926 106.797 29.0841 107.284 28.2722C107.696 27.5937 107.903 26.7965 107.903 25.8712ZM117.526 22.8327C117.292 22.7907 117.056 22.7699 116.819 22.7708C116.029 22.7708 115.419 23.0669 114.989 23.6635C114.617 24.1887 114.43 24.8524 114.43 25.6538V30.942H112.186V24.0374C112.188 22.9794 112.166 21.9215 112.121 20.8645H114.075L114.157 22.7928H114.219C114.457 22.1301 114.829 21.5955 115.341 21.1953C115.809 20.8457 116.378 20.6563 116.963 20.6555C117.17 20.6555 117.357 20.6702 117.524 20.6964L117.526 22.8327ZM127.561 25.4259C127.566 25.7663 127.539 26.1064 127.478 26.4415H120.747C120.772 27.4372 121.099 28.1997 121.724 28.7249C122.291 29.1933 123.025 29.4285 123.926 29.4285C124.922 29.4285 125.831 29.271 126.649 28.9528L127.001 30.5061C126.045 30.9221 124.917 31.129 123.615 31.129C122.049 31.129 120.82 30.6689 119.925 29.751C119.033 28.832 118.586 27.5968 118.586 26.0498C118.586 24.5311 119.001 23.2655 119.834 22.2561C120.705 21.1785 121.883 20.6397 123.365 20.6397C124.82 20.6397 125.922 21.1785 126.67 22.2561C127.263 23.11 127.561 24.1687 127.561 25.4259ZM125.421 24.8451C125.437 24.1803 125.289 23.6078 124.985 23.1237C124.597 22.4998 123.999 22.1889 123.198 22.1889C122.465 22.1889 121.867 22.4924 121.412 23.1016C121.039 23.5858 120.817 24.1677 120.748 24.843L125.421 24.8451Z" fill="black"/>
<path d="M46.9292 9.12909H47.8037C48.687 9.12909 49.1924 9.53339 49.1924 10.1794C49.1924 10.8166 48.6562 11.2692 47.8345 11.2692C47.0127 11.2692 46.4546 10.8649 46.3975 10.2453H45.4526C45.5098 11.3615 46.4546 12.1042 47.8345 12.1042C49.1748 12.1042 50.2031 11.3 50.2031 10.2277C50.2031 9.33563 49.6143 8.76874 48.7925 8.68524V8.61053C49.5 8.44794 49.9834 7.85468 49.9834 7.16034C49.9834 6.15839 49.1045 5.45526 47.8564 5.45526C46.5337 5.45526 45.6812 6.15839 45.6152 7.29218H46.5469C46.604 6.65936 47.0874 6.27704 47.8257 6.27704C48.5728 6.27704 49.0122 6.66815 49.0122 7.26581C49.0122 7.87665 48.5288 8.30731 47.7773 8.30731H46.9292V9.12909Z" fill="black"/>
<path d="M52.9188 12.0295C53.5472 12.0295 54.0701 11.757 54.3558 11.2736H54.4305V11.9504H55.3402V8.68524C55.3402 7.68329 54.6634 7.08563 53.4637 7.08563C52.3782 7.08563 51.6048 7.60858 51.5081 8.41278H52.4222C52.5277 8.06561 52.8924 7.86786 53.4197 7.86786C54.0657 7.86786 54.3997 8.16229 54.3997 8.68524V9.10272L53.1033 9.18182C51.9652 9.25214 51.3236 9.74872 51.3236 10.6057C51.3236 11.4758 51.9959 12.0295 52.9188 12.0295ZM53.1605 11.2692C52.6463 11.2692 52.2728 11.0099 52.2728 10.5661C52.2728 10.131 52.5716 9.89813 53.2308 9.85419L54.3997 9.77509V10.1882C54.3997 10.8034 53.8724 11.2692 53.1605 11.2692Z" fill="black"/>
<path d="M60.0993 7.93378V7.17792H56.9484V11.9504H57.8932V7.93378H60.0993Z" fill="black"/>
<path d="M63.8872 7.09442C63.2368 7.09442 62.6743 7.42401 62.3842 7.96893H62.3139V7.17792H61.4043V13.5412H62.3491V11.2297H62.4238C62.6743 11.735 63.2148 12.0295 63.896 12.0295C65.1045 12.0295 65.8735 11.0715 65.8735 9.56415C65.8735 8.04803 65.1045 7.09442 63.8872 7.09442ZM63.6191 11.2209C62.8281 11.2209 62.3315 10.5837 62.3315 9.56415C62.3315 8.54022 62.8281 7.90302 63.6235 7.90302C64.4233 7.90302 64.9023 8.52704 64.9023 9.56415C64.9023 10.6013 64.4233 11.2209 63.6191 11.2209Z" fill="black"/>
<path d="M67.5696 13.6818C68.5452 13.6818 68.9978 13.3171 69.4065 12.1701L71.1907 7.17792H70.1887L68.9934 11.0012H68.9187L67.719 7.17792H66.6907L68.4221 11.9636L68.3518 12.2097C68.1892 12.715 67.9344 12.904 67.4861 12.904C67.3982 12.904 67.2532 12.8996 67.1785 12.8864V13.6599C67.2664 13.673 67.4905 13.6818 67.5696 13.6818Z" fill="black"/>
<path d="M73.9591 12.0383C75.1368 12.0383 75.9103 11.4274 75.9103 10.5397C75.9103 10.0036 75.5851 9.62128 74.9347 9.48944V9.41473C75.4356 9.30048 75.7477 8.89178 75.7477 8.3952C75.7477 7.60419 75.0885 7.08563 73.9854 7.08563C72.8824 7.08563 72.2013 7.63055 72.1002 8.45233H73.0143C73.0714 8.08319 73.4361 7.84589 73.9635 7.84589C74.5392 7.84589 74.8204 8.12274 74.8204 8.49188C74.8204 8.93573 74.526 9.16864 73.9459 9.16864H73.2384V9.86298H73.9503C74.6139 9.86298 74.9698 10.0827 74.9698 10.5529C74.9698 10.9836 74.5919 11.278 73.9503 11.278C73.3922 11.278 73.0055 11.0539 72.9132 10.654H71.9728C72.0606 11.5373 72.8824 12.0383 73.9591 12.0383Z" fill="black"/>
<path d="M78.2568 11.9504L80.4408 8.58856H80.5155V11.9504H81.4516V7.17792H80.5155L78.3315 10.5266H78.2568V7.17792H77.3207V11.9504H78.2568Z" fill="black"/>
<path d="M86.6589 7.17792H82.6995V7.93378H84.2068V11.9504H85.1516V7.93378H86.6589V7.17792Z" fill="black"/>
<path d="M87.9024 11.9504H89.792C90.8995 11.9504 91.607 11.3132 91.607 10.3024C91.607 9.29608 90.8995 8.65887 89.792 8.65887H88.8472V7.17792H87.9024V11.9504ZM89.7217 9.41034C90.293 9.41034 90.6666 9.7619 90.6666 10.3024C90.6666 10.8386 90.2974 11.1945 89.7217 11.1945H88.8472V9.41034H89.7217Z" fill="black"/>
<path d="M97.7546 11.9504C98.8049 11.9504 99.4333 11.4055 99.4333 10.5837C99.4333 10.0124 99.029 9.58173 98.4094 9.50702V9.43231C98.8796 9.34442 99.218 8.90057 99.218 8.40839C99.218 7.66132 98.6687 7.17792 97.7326 7.17792H95.5749V11.9504H97.7546ZM96.5109 7.87665H97.5524C98.0534 7.87665 98.2907 8.13593 98.2907 8.52264C98.2907 8.94891 98.0183 9.17743 97.447 9.17743H96.5109V7.87665ZM96.5109 9.86298H97.5217C98.1545 9.86298 98.4797 10.0871 98.4797 10.5485C98.4797 10.9924 98.1896 11.2473 97.6403 11.2473H96.5109V9.86298Z" fill="black"/>
</svg>
