<svg width="117" height="27" viewBox="0 0 117 27" fill="none" xmlns="http://www.w3.org/2000/svg">
<path d="M58.8034 14.7505C56.4034 14.7505 54.5034 16.5505 54.5034 19.0505C54.5034 21.4505 56.4034 23.3505 58.8034 23.3505C61.2034 23.3505 63.1034 21.5505 63.1034 19.0505C63.1034 16.4505 61.2034 14.7505 58.8034 14.7505ZM58.8034 21.5505C57.5034 21.5505 56.4034 20.4505 56.4034 18.9505C56.4034 17.4505 57.5034 16.3505 58.8034 16.3505C60.1034 16.3505 61.2034 17.3505 61.2034 18.9505C61.2034 20.4505 60.1034 21.5505 58.8034 21.5505ZM49.5034 14.7505C47.1034 14.7505 45.2034 16.5505 45.2034 19.0505C45.2034 21.4505 47.1034 23.3505 49.5034 23.3505C51.9034 23.3505 53.8034 21.5505 53.8034 19.0505C53.8034 16.4505 51.9034 14.7505 49.5034 14.7505ZM49.5034 21.5505C48.2034 21.5505 47.1034 20.4505 47.1034 18.9505C47.1034 17.4505 48.2034 16.3505 49.5034 16.3505C50.8034 16.3505 51.9034 17.3505 51.9034 18.9505C51.9034 20.4505 50.8034 21.5505 49.5034 21.5505ZM38.4034 16.0505V17.8505H42.7034C42.6034 18.8505 42.2034 19.6505 41.7034 20.1505C41.1034 20.7505 40.1034 21.4505 38.4034 21.4505C35.7034 21.4505 33.7034 19.3505 33.7034 16.6505C33.7034 13.9505 35.8034 11.8505 38.4034 11.8505C39.8034 11.8505 40.9034 12.4505 41.7034 13.1505L43.0034 11.8505C41.9034 10.8505 40.5034 10.0505 38.5034 10.0505C34.9034 10.0505 31.8034 13.0505 31.8034 16.6505C31.8034 20.2505 34.9034 23.2505 38.5034 23.2505C40.5034 23.2505 41.9034 22.6505 43.1034 21.3505C44.3034 20.1505 44.7034 18.4505 44.7034 17.1505C44.7034 16.7505 44.7034 16.3505 44.6034 16.0505H38.4034ZM83.8034 17.4505C83.4034 16.4505 82.4034 14.7505 80.2034 14.7505C78.0034 14.7505 76.2034 16.4505 76.2034 19.0505C76.2034 21.4505 78.0034 23.3505 80.4034 23.3505C82.3034 23.3505 83.5034 22.1505 83.9034 21.4505L82.5034 20.4505C82.0034 21.1505 81.4034 21.6505 80.4034 21.6505C79.4034 21.6505 78.8034 21.2505 78.3034 20.3505L84.0034 17.9505L83.8034 17.4505ZM78.0034 18.8505C78.0034 17.2505 79.3034 16.3505 80.2034 16.3505C80.9034 16.3505 81.6034 16.7505 81.8034 17.2505L78.0034 18.8505ZM73.3034 22.9505H75.2034V10.4505H73.3034V22.9505ZM70.3034 15.6505C69.8034 15.1505 69.0034 14.6505 68.0034 14.6505C65.9034 14.6505 63.9034 16.5505 63.9034 18.9505C63.9034 21.3505 65.8034 23.1505 68.0034 23.1505C69.0034 23.1505 69.8034 22.6505 70.2034 22.1505H70.3034V22.7505C70.3034 24.3505 69.4034 25.2505 68.0034 25.2505C66.9034 25.2505 66.1034 24.4505 65.9034 23.7505L64.3034 24.4505C64.8034 25.5505 66.0034 26.9505 68.1034 26.9505C70.3034 26.9505 72.1034 25.6505 72.1034 22.5505V14.9505H70.3034V15.6505ZM68.1034 21.5505C66.8034 21.5505 65.7034 20.4505 65.7034 18.9505C65.7034 17.4505 66.8034 16.3505 68.1034 16.3505C69.4034 16.3505 70.4034 17.4505 70.4034 18.9505C70.4034 20.4505 69.4034 21.5505 68.1034 21.5505ZM92.5034 10.4505H88.0034V22.9505H89.9034V18.2505H92.5034C94.6034 18.2505 96.6034 16.7505 96.6034 14.3505C96.6034 11.9505 94.6034 10.4505 92.5034 10.4505ZM92.6034 16.4505H89.9034V12.1505H92.6034C94.0034 12.1505 94.8034 13.3505 94.8034 14.2505C94.7034 15.3505 93.9034 16.4505 92.6034 16.4505ZM104.103 14.6505C102.703 14.6505 101.303 15.2505 100.803 16.5505L102.503 17.2505C102.903 16.5505 103.503 16.3505 104.203 16.3505C105.203 16.3505 106.103 16.9505 106.203 17.9505V18.0505C105.903 17.8505 105.103 17.5505 104.303 17.5505C102.503 17.5505 100.703 18.5505 100.703 20.3505C100.703 22.0505 102.203 23.1505 103.803 23.1505C105.103 23.1505 105.703 22.5505 106.203 21.9505H106.303V22.9505H108.103V18.1505C107.903 15.9505 106.203 14.6505 104.103 14.6505ZM103.903 21.5505C103.303 21.5505 102.403 21.2505 102.403 20.4505C102.403 19.4505 103.503 19.1505 104.403 19.1505C105.203 19.1505 105.603 19.3505 106.103 19.5505C105.903 20.7505 104.903 21.5505 103.903 21.5505ZM114.403 14.9505L112.303 20.3505H112.203L110.003 14.9505H108.003L111.303 22.5505L109.403 26.7505H111.303L116.403 14.9505H114.403ZM97.6034 22.9505H99.5034V10.4505H97.6034V22.9505Z" fill="black"/>
<path d="M1.40039 0.450378C1.10039 0.750378 0.900391 1.25038 0.900391 1.85038V23.9504C0.900391 24.5504 1.10039 25.0504 1.40039 25.3504L1.50039 25.4504L13.9004 13.0504V12.9504V12.8504L1.40039 0.450378Z" fill="url(#paint0_linear_901_248)"/>
<path d="M17.9999 17.2502L13.8999 13.1502V12.9502V12.8502L17.9999 8.75018L18.0999 8.85018L22.9999 11.6502C24.3999 12.4502 24.3999 13.7502 22.9999 14.5502L17.9999 17.2502Z" fill="url(#paint1_linear_901_248)"/>
<path d="M18.1004 17.1504L13.9004 12.9504L1.40039 25.4504C1.90039 25.9504 2.60039 25.9504 3.50039 25.5504L18.1004 17.1504Z" fill="url(#paint2_linear_901_248)"/>
<path d="M18.1004 8.75049L3.50039 0.45049C2.60039 -0.0495096 1.90039 0.0504907 1.40039 0.550491L13.9004 12.9505L18.1004 8.75049Z" fill="url(#paint3_linear_901_248)"/>
<path opacity="0.2" d="M18.0004 17.05L3.50039 25.25C2.70039 25.75 2.00039 25.65 1.50039 25.25L1.40039 25.35L1.50039 25.45C2.00039 25.85 2.70039 25.95 3.50039 25.45L18.0004 17.05Z" fill="black"/>
<path opacity="0.12" d="M1.40049 25.2493C1.10049 24.9493 1.00049 24.4493 1.00049 23.8493V23.9493C1.00049 24.5493 1.20049 25.0493 1.50049 25.3493V25.2493H1.40049Z" fill="black"/>
<path opacity="0.12" d="M23 14.2504L18 17.0504L18.1 17.1504L23 14.3504C23.7 13.9504 24 13.4504 24 12.9504C24 13.4504 23.6 13.8504 23 14.2504Z" fill="black"/>
<path opacity="0.25" d="M3.5 0.550258L23 11.6503C23.6 12.0503 24 12.4503 24 12.9503C24 12.4503 23.7 11.9503 23 11.5503L3.5 0.450258C2.1 -0.349742 1 0.350258 1 1.95026V2.05026C1 0.450258 2.1 -0.249742 3.5 0.550258Z" fill="white"/>
<defs>
<linearGradient id="paint0_linear_901_248" x1="12.8001" y1="1.66008" x2="-3.98231" y2="18.4425" gradientUnits="userSpaceOnUse">
<stop stop-color="#00A0FF"/>
<stop offset="0.00657445" stop-color="#00A1FF"/>
<stop offset="0.2601" stop-color="#00BEFF"/>
<stop offset="0.5122" stop-color="#00D2FF"/>
<stop offset="0.7604" stop-color="#00DFFF"/>
<stop offset="1" stop-color="#00E3FF"/>
</linearGradient>
<linearGradient id="paint1_linear_901_248" x1="24.8343" y1="12.9516" x2="0.637404" y2="12.9516" gradientUnits="userSpaceOnUse">
<stop stop-color="#FFE000"/>
<stop offset="0.4087" stop-color="#FFBD00"/>
<stop offset="0.7754" stop-color="#FFA500"/>
<stop offset="1" stop-color="#FF9C00"/>
</linearGradient>
<linearGradient id="paint2_linear_901_248" x1="15.8274" y1="15.2465" x2="-6.93091" y2="38.0048" gradientUnits="userSpaceOnUse">
<stop stop-color="#FF3A44"/>
<stop offset="1" stop-color="#C31162"/>
</linearGradient>
<linearGradient id="paint3_linear_901_248" x1="-1.70231" y1="-6.87331" x2="8.46029" y2="3.28919" gradientUnits="userSpaceOnUse">
<stop stop-color="#32A071"/>
<stop offset="0.0685" stop-color="#2DA771"/>
<stop offset="0.4762" stop-color="#15CF74"/>
<stop offset="0.8009" stop-color="#06E775"/>
<stop offset="1" stop-color="#00F076"/>
</linearGradient>
</defs>
</svg>
