<svg width="40" height="40" viewBox="0 0 40 40" fill="none" xmlns="http://www.w3.org/2000/svg">
<path fill-rule="evenodd" clip-rule="evenodd" d="M19.6739 0C23.7274 0 27.5486 1.23871 30.6727 3.35484C33.7967 5.47097 36.3012 8.46452 37.7986 11.9742C38.8056 14.3226 39.3478 16.929 39.3478 19.6387C39.3478 23.6903 38.1085 27.4839 35.9913 30.6323C33.8742 33.7806 30.8792 36.2581 27.3421 37.7548C24.9667 38.7355 22.3849 39.3032 19.6739 39.3032C15.6203 39.3032 11.7992 38.0645 8.6751 35.9484C5.52521 33.8323 3.04661 30.8387 1.54912 27.3032C0.542194 24.9548 0 22.3742 0 19.6645C0 15.6129 1.2393 11.7935 3.35644 8.67097C5.47358 5.54839 8.46855 3.04516 12.0057 1.54839C14.381 0.541935 16.9629 0 19.6739 0ZM26.6708 30.0645C28.6588 28.7226 30.2596 26.7871 31.2149 24.5419C31.8603 23.0452 32.196 21.4194 32.2218 19.7161C32.2218 17.1097 31.4214 14.7097 30.0788 12.6968C28.7363 10.6839 26.7999 9.10968 24.5536 8.15484C23.0561 7.53548 21.4296 7.17419 19.6739 7.17419C17.0662 7.17419 14.665 7.94839 12.6512 9.31613C10.6631 10.6581 9.06238 12.5677 8.10709 14.8129C7.46162 16.3097 7.12597 17.9355 7.12597 19.6903C7.12597 22.2968 7.92636 24.671 9.26893 26.6839C10.6373 28.671 12.5479 30.271 14.7941 31.2258C16.2916 31.871 17.944 32.2065 19.6739 32.2065C22.2816 32.2065 24.6569 31.4065 26.6708 30.0645Z" fill="#00A1F1"/>
<path d="M19.7088 13.6C16.3524 13.6 13.6414 16.3097 13.6414 19.6645C13.6414 23.0193 16.3524 25.729 19.7088 25.729C23.0653 25.729 25.7762 23.0193 25.7762 19.6645C25.7762 16.3097 23.0653 13.6 19.7088 13.6Z" fill="#E42469"/>
</svg>
