<svg width="151" height="30" viewBox="0 0 151 30" fill="none" xmlns="http://www.w3.org/2000/svg">
<circle cx="50.5" cy="14.5" r="4.5" fill="#E42469"/>
<path d="M8.72963 28.9894L0.688843 1.00423H5.9578L10.9958 20.8186L15.948 1.00423H20.0272L24.952 20.8186L30.0364 1.00423H35.3053L27.2182 28.9894H22.8368L17.9645 10.3595L13.1487 28.9894H8.72963Z" fill="#00A1F1"/>
<path fill-rule="evenodd" clip-rule="evenodd" d="M67.9993 0.732782V28.9894H72.9953V18.5303H73.1653L80.5305 28.9894H86.857L78.9253 18.5303C81.1915 18.3411 83.0234 17.3766 84.4397 15.7122C85.8372 14.01 86.5549 12.0052 86.5549 9.69773C86.5549 6.91746 85.6295 4.74242 83.7976 3.13478C81.9658 1.52714 79.3408 0.732782 75.9414 0.732782H67.9993ZM72.9953 14.1802V5.74483H76.0925C77.6977 5.74483 78.9631 6.10418 79.8884 6.78506C80.8138 7.48486 81.3048 8.54401 81.3237 9.96251C81.3237 11.4188 80.8516 12.478 79.9073 13.1589C78.963 13.8398 77.6977 14.1802 76.0925 14.1802H72.9953Z" fill="#00A1F1"/>
<path d="M90.0039 28.9894V1.00705H95.4465V12.9887L104.209 1.00705H110.347L99.7523 14.6341L110.328 28.9894H104.209L95.4465 16.62V28.9894H90.0039Z" fill="#00A1F1"/>
<path d="M112.999 28.9962V25.0068H116.996V28.9962H112.999Z" fill="#00A1F1"/>
<path d="M133.002 14.0076V28.9893H129.678V27.5897H129.622C129.131 28.195 128.564 28.6489 127.903 28.9893C127.242 29.3109 126.525 29.4811 125.713 29.4811C123.673 29.4811 122.143 28.8569 121.123 27.5897C120.104 26.3226 119.613 24.488 119.632 22.086V14.0076H123.257V21.5942C123.239 23.164 123.484 24.2988 123.994 25.0175C124.504 25.7362 125.278 26.0767 126.336 26.0767C127.356 26.0956 128.13 25.7362 128.64 25.0175C129.15 24.2988 129.395 23.164 129.395 21.5942V14.0076H133.002Z" fill="#00A1F1"/>
<path fill-rule="evenodd" clip-rule="evenodd" d="M150.995 28.9893V14.0041H147.671V16.0526H147.615C147.067 15.2015 146.368 14.5584 145.537 14.1045C144.706 13.6695 143.762 13.4425 142.704 13.4425C140.608 13.4425 138.833 14.218 137.398 15.7689C135.963 17.3198 135.245 19.2679 135.245 21.6131C135.245 23.9584 135.962 25.8686 137.417 27.325C138.852 28.7813 140.589 29.5 142.591 29.5C143.554 29.4811 144.461 29.2541 145.348 28.8569C146.236 28.4598 146.973 27.8167 147.615 26.9656H147.671V28.9893H150.995ZM140.098 18.1709C140.91 17.282 141.968 16.828 143.271 16.828C144.555 16.828 145.594 17.263 146.406 18.1331C147.199 19.0031 147.596 20.1 147.596 21.4051C147.596 22.8047 147.199 23.9206 146.406 24.7717C145.613 25.6228 144.574 26.0578 143.29 26.0578C141.968 26.0578 140.892 25.6228 140.079 24.7906C139.249 23.9584 138.852 22.8803 138.871 21.5753C138.871 20.2135 139.286 19.0787 140.098 18.1709Z" fill="#00A1F1"/>
<path fill-rule="evenodd" clip-rule="evenodd" d="M50.5 29C58.5081 29 65 22.5081 65 14.5C65 6.49187 58.5081 0 50.5 0C42.4919 0 36 6.49187 36 14.5C36 22.5081 42.4919 29 50.5 29ZM50.5 24C55.7467 24 60 19.7467 60 14.5C60 9.25329 55.7467 5 50.5 5C45.2533 5 41 9.25329 41 14.5C41 19.7467 45.2533 24 50.5 24Z" fill="#00A1F1"/>
</svg>
